Coordinates
version=1
nRows=11
nColumns=63
inDegrees=yes

Units are S.I. units (second, meters, Newtons, ...)
If the header above contains a line with 'inDegrees', this indicates whether rotational values are in degrees (yes) or radians (no).

endheader
time	pelvis_tilt	pelvis_list	pelvis_rotation	pelvis_tx	pelvis_ty	pelvis_tz	hip_flexion_r	hip_adduction_r	hip_rotation_r	knee_angle_r	knee_angle_r_beta	ankle_angle_r	subtalar_angle_r	mtp_angle_r	hip_flexion_l	hip_adduction_l	hip_rotation_l	knee_angle_l	knee_angle_l_beta	ankle_angle_l	subtalar_angle_l	mtp_angle_l	L5_S1_Flex_Ext	L5_S1_Lat_Bending	L5_S1_axial_rotation	L4_L5_Flex_Ext	L4_L5_Lat_Bending	L4_L5_axial_rotation	L3_L4_Flex_Ext	L3_L4_Lat_Bending	L3_L4_axial_rotation	L2_L3_Flex_Ext	L2_L3_Lat_Bending	L2_L3_axial_rotation	L1_L2_Flex_Ext	L1_L2_Lat_Bending	L1_L2_axial_rotation	L1_T12_Flex_Ext	L1_T12_Lat_Bending	L1_T12_axial_rotation	Abs_r3	Abs_r2	Abs_r1	Abs_t1	Abs_t2	neck_flexion	neck_bending	neck_rotation	arm_flex_r	arm_add_r	arm_rot_r	elbow_flex_r	pro_sup_r	wrist_flex_r	wrist_dev_r	arm_flex_l	arm_add_l	arm_rot_l	elbow_flex_l	pro_sup_l	wrist_flex_l	wrist_dev_l
2.416667	-17.346700	-0.679348	60.801799	0.200014	1.002703	0.588348	29.487529	-10.841054	15.258890	33.370346	0.582422	35.694557	0.961675	0.000000	16.463699	8.745097	-35.963818	19.337142	0.337497	35.347543	13.382100	0.000000	-0.515289	-0.038154	-3.681872	-0.956944	-0.050745	-3.911989	-0.846569	-0.092769	-3.911989	-0.588924	-0.092769	-3.221638	-0.478498	-0.077804	-2.991521	-0.294436	-0.059101	-2.761404	-3.680660	-0.431610	-20.477469	0.000000	0.000000	3.395169	10.119074	23.243802	45.078522	5.908103	119.803359	-4.950119	-3.940016	75.599437	-26.225383	-8.573016	-26.650603	62.357541	6.577721	10.548880	-16.647360	-22.279396
2.433333	-19.409087	-1.774298	59.617743	0.198362	0.996112	0.593549	32.962071	-11.395245	16.908968	34.855846	0.608349	35.409457	0.769524	0.000000	19.428204	9.477186	-36.562782	20.086614	0.350578	35.657246	12.359695	0.000000	-0.527646	-0.068188	-3.884999	-0.979892	-0.090689	-4.127812	-0.866870	-0.165791	-4.127812	-0.603047	-0.165791	-3.399375	-0.489972	-0.139048	-3.156562	-0.301497	-0.105622	-2.913750	-3.768923	-0.771351	-21.607201	0.000000	0.000000	3.630567	10.450523	24.071532	43.433000	6.839986	115.760136	0.516811	0.370359	70.307895	-24.053564	-11.547419	-26.617544	49.874116	9.464129	15.638671	-16.181422	-21.028857
2.450000	-21.475068	-3.219671	58.583510	0.195528	0.988719	0.598330	36.748203	-11.871589	18.165873	36.361202	0.634623	35.179957	0.758407	0.000000	22.810011	10.069987	-36.742546	20.950442	0.365654	35.993562	10.993793	0.000000	-0.520570	-0.068425	-4.003511	-0.966751	-0.091005	-4.253730	-0.855245	-0.166369	-4.253730	-0.594960	-0.166369	-3.503072	-0.483402	-0.139532	-3.252852	-0.297454	-0.105990	-3.002633	-3.718381	-0.774038	-22.266325	0.000000	0.000000	4.547352	10.773131	23.984603	40.702478	6.946541	108.921787	7.928320	6.289384	63.940643	-21.236860	-14.370445	-26.326247	37.594331	12.454166	20.840792	-15.097588	-19.609516
2.466667	-23.528053	-4.956714	57.683652	0.191695	0.980798	0.602640	40.749315	-12.287625	19.070649	37.843544	0.660494	35.013028	0.868340	0.000000	26.497665	10.556345	-36.538895	21.868911	0.381685	36.344291	9.359951	0.000000	-0.498585	-0.045198	-4.029192	-0.925923	-0.060113	-4.281017	-0.819126	-0.109893	-4.281017	-0.569833	-0.109893	-3.525543	-0.462986	-0.092167	-3.273719	-0.284892	-0.070011	-3.021894	-3.561344	-0.511284	-22.409158	0.000000	0.000000	6.065868	11.252204	23.084600	37.053160	6.247990	99.884448	16.847497	13.524991	56.675058	-18.039209	-16.892946	-25.866095	25.878444	15.425704	26.629486	-13.612129	-18.115272
2.483333	-25.564384	-6.967948	56.895223	0.187067	0.972514	0.606534	44.924144	-12.652927	19.651261	39.283204	0.685621	34.889340	1.044110	0.000000	30.446641	10.937994	-36.013327	22.828613	0.398434	36.715299	7.570123	0.000000	-0.458034	-0.003856	-3.968217	-0.850616	-0.005128	-4.216231	-0.752505	-0.009375	-4.216231	-0.523487	-0.009375	-3.472190	-0.425331	-0.007863	-3.224177	-0.261721	-0.005973	-2.976163	-3.271694	-0.043618	-22.070034	0.000000	0.000000	8.087894	11.928904	21.393842	32.669483	4.837185	89.191255	26.889203	21.789529	48.429475	-14.557887	-19.063415	-25.308635	14.899228	18.341716	32.849145	-11.684504	-16.694051
2.500000	-27.566857	-9.178779	56.213988	0.181838	0.964076	0.610029	49.178896	-12.993830	19.974418	40.658366	0.709622	34.797244	1.208704	0.000000	34.558326	11.252803	-35.224638	23.804720	0.415471	37.107893	5.699315	0.000000	-0.402613	0.049767	-3.825444	-0.747693	0.066190	-4.064534	-0.661453	0.121002	-4.064534	-0.460147	0.121002	-3.347263	-0.373867	0.101484	-3.108173	-0.230053	0.077088	-2.869083	-2.875826	0.562970	-21.275970	0.000000	0.000000	10.499277	12.862689	19.107910	27.742143	2.805662	77.306122	37.660128	30.777840	39.423696	-11.001221	-20.753598	-24.733762	5.015901	21.110045	39.519319	-9.460400	-15.346256
2.516667	-29.508678	-11.520387	55.625060	0.176208	0.955678	0.613188	53.425174	-13.322866	20.062301	41.943813	0.732058	34.731867	1.389796	0.000000	38.738936	11.507173	-34.230820	24.774862	0.432403	37.519144	3.798669	0.000000	-0.334591	0.112796	-3.612358	-0.621368	0.150019	-3.838130	-0.549699	0.274252	-3.838130	-0.382404	0.274252	-3.160813	-0.310701	0.230014	-2.935041	-0.191185	0.174721	-2.709268	-2.389947	1.275970	-20.090851	0.000000	0.000000	13.159796	14.029270	16.444532	22.479315	0.274657	64.708854	48.784690	40.151062	29.947726	-7.518501	-21.899861	-24.192781	-3.461357	23.677074	46.446868	-7.128715	-14.040977
2.533333	-31.356502	-13.904938	55.139647	0.170399	0.947524	0.616051	57.555257	-13.643817	19.989871	43.126791	0.752705	34.684508	1.525394	0.000000	42.867517	11.708229	-33.142696	25.719755	0.448894	37.949202	2.011711	0.000000	-0.257887	0.182639	-3.348546	-0.478922	0.242910	-3.557830	-0.423683	0.444070	-3.557830	-0.294739	0.444070	-2.929978	-0.239474	0.372438	-2.720694	-0.147357	0.282909	-2.511410	-1.842062	2.066054	-18.623609	0.000000	0.000000	15.929953	15.302959	13.595562	17.087578	-2.589038	51.791511	59.902919	49.585458	20.541793	-4.123198	-22.483858	-23.719619	-10.074175	25.981080	53.375052	-5.210193	-12.833473
2.550000	-33.096247	-16.254812	54.758428	0.164614	0.939764	0.618638	61.483762	-13.968211	19.788057	44.200118	0.771438	34.659809	1.637796	0.000000	46.845030	11.871003	-31.998927	26.616841	0.464552	38.386517	0.355898	0.000000	-0.175306	0.255557	-3.055866	-0.325561	0.339891	-3.246858	-0.288011	0.621361	-3.246858	-0.200357	0.621361	-2.673883	-0.162789	0.521131	-2.482891	-0.100170	0.395858	-2.291900	-1.252195	2.890910	-16.995812	0.000000	0.000000	18.719434	16.569834	10.797524	11.761892	-5.631859	39.028717	70.680373	58.791193	11.443817	-0.910853	-22.536245	-23.351414	-14.068357	27.933717	60.056297	-4.909571	-11.763439
2.566667	-34.689768	-18.509380	54.493000	0.159070	0.932580	0.620946	65.111806	-14.312048	19.474216	45.151427	0.788041	34.645039	1.731807	0.000000	50.568283	12.007774	-30.857779	27.453258	0.479150	38.828578	-1.102700	0.000000	-0.091537	0.330704	-2.750825	-0.169993	0.439836	-2.922751	-0.150386	0.804073	-2.922751	-0.104618	0.804073	-2.406971	-0.085001	0.674371	-2.235045	-0.052304	0.512260	-2.063118	-0.653839	3.740988	-15.299261	0.000000	0.000000	21.435729	17.740182	8.273810	6.689792	-8.737085	26.836769	80.794353	67.506376	2.948293	2.053832	-22.082796	-23.131047	-15.321564	29.443223	66.227191	-6.361608	-10.887804
2.583333	-36.069051	-20.640738	54.371737	0.153965	0.926198	0.622929	68.330533	-14.664504	19.046054	45.943101	0.801858	34.596423	1.760367	0.000000	53.943674	12.110053	-29.734710	28.205023	0.492271	39.259166	-2.311779	0.000000	-0.010613	0.412372	-2.449954	-0.019710	0.548454	-2.603076	-0.017437	1.002640	-2.603076	-0.012130	1.002640	-2.143710	-0.009855	0.840908	-1.990588	-0.006064	0.638764	-1.837466	-0.075809	4.664830	-13.625911	0.000000	0.000000	23.952173	18.741711	6.250086	2.051275	-11.819552	15.648547	89.926074	75.474281	-4.680113	4.670133	-21.143597	-23.060382	-13.909123	30.407972	71.575067	-9.400601	-10.267287
